<!-- icon666.com - MILLIONS vector ICONS FREE --><svg id="Capa_1" enable-background="new 0 0 512 512" viewBox="0 0 512 512" xmlns="http://www.w3.org/2000/svg" xmlns:xlink="http://www.w3.org/1999/xlink"><linearGradient id="SVGID_1_" gradientUnits="userSpaceOnUse" x1="74.981" x2="437.02" y1="437.019" y2="74.98"><stop offset="0" stop-color="#230be0"></stop><stop offset="1" stop-color="#fc54ff"></stop></linearGradient><radialGradient id="SVGID_2_" cx="256.001" cy="256" gradientUnits="userSpaceOnUse" r="256"><stop offset="0" stop-color="#8d00db" stop-opacity=".8"></stop><stop offset="1" stop-color="#fc54ff" stop-opacity="0"></stop></radialGradient><linearGradient id="lg1"><stop offset="0" stop-color="#fc54ff"></stop><stop offset=".2201" stop-color="#fd75ff"></stop><stop offset=".7016" stop-color="#fec8ff"></stop><stop offset="1" stop-color="#fff"></stop></linearGradient><linearGradient id="SVGID_3_" gradientUnits="userSpaceOnUse" x1="12.899" x2="585.958" xlink:href="#lg1" y1="533.728" y2="-39.331"></linearGradient><linearGradient id="SVGID_4_" gradientUnits="userSpaceOnUse" x1="-.731" x2="571.282" xlink:href="#lg1" y1="407.23" y2="-164.782"></linearGradient><linearGradient id="SVGID_5_" gradientUnits="userSpaceOnUse" x1="-5.965" x2="591.277" xlink:href="#lg1" y1="548.748" y2="-48.494"></linearGradient><linearGradient id="SVGID_6_" gradientUnits="userSpaceOnUse" x1="15.388" x2="624.084" xlink:href="#lg1" y1="648.637" y2="39.942"></linearGradient><linearGradient id="SVGID_7_" gradientUnits="userSpaceOnUse" x1="138.005" x2="512.61" xlink:href="#lg1" y1="245.561" y2="-129.044"></linearGradient><linearGradient id="SVGID_8_" gradientUnits="userSpaceOnUse" x1="208.819" x2="476.889" xlink:href="#lg1" y1="218.785" y2="-49.285"></linearGradient><radialGradient id="SVGID_9_" cx="258.059" cy="320.221" gradientUnits="userSpaceOnUse" r="236.89"><stop offset="0" stop-color="#8d00db" stop-opacity=".8"></stop><stop offset=".0149" stop-color="#8f02dc" stop-opacity=".788"></stop><stop offset=".3325" stop-color="#be25eb" stop-opacity=".534"></stop><stop offset=".6138" stop-color="#e03ff6" stop-opacity=".309"></stop><stop offset=".846" stop-color="#f54efd" stop-opacity=".123"></stop><stop offset="1" stop-color="#fc54ff" stop-opacity="0"></stop></radialGradient><g><circle cx="256" cy="256" fill="url(#SVGID_1_)" r="256"></circle><circle cx="256" cy="256" fill="url(#SVGID_2_)" r="256"></circle><path d="m338.783 227.2c19.848-24.361 39.564-48.435 58.964-71.949-70.873-2.159-141.747-2.699-212.62-1.619-.564 68.246-.564 136.492 0 204.738 70.874 1.079 141.747.54 212.621-1.619-19.4-23.514-39.116-47.588-58.964-71.949-13.631-16.731-13.631-40.873-.001-57.602z" fill="url(#SVGID_3_)"></path><path d="m214.609 227.045c-9.924-24.566-19.782-49.06-29.482-73.414-23.624.36-47.249.9-70.874 1.619 19.4 23.514 39.116 47.588 58.964 71.949 13.63 16.73 13.63 40.871 0 57.601-19.848 24.361-39.564 48.435-58.964 71.949 23.624.72 47.249 1.259 70.873 1.619 9.7-24.354 19.558-48.848 29.482-73.414 6.815-16.87 6.815-41.038.001-57.909z" fill="url(#SVGID_4_)"></path><path d="m103.745 384.5c.596 24.715 25.678 48.189 63.192 63.531 11.244-43.836 23.153-88.075 35.354-132.526-58.252 10.639-99.355 36.962-98.546 68.995z" fill="url(#SVGID_5_)"></path><path d="m256 310.838c-18.903 0-37.003 1.657-53.709 4.667-15.177 37.73-30.108 75.222-44.456 112.228-3.034 7.824 1.121 16.986 9.102 20.298 25.134 10.22 55.856 16.569 89.063 16.556 82.542-.16 151.052-39.163 152.255-80.088 1.086-41.035-67.424-73.394-152.255-73.661z" fill="url(#SVGID_6_)"></path><path d="m408.255 127.5c1.086 41.036-67.424 73.393-152.255 73.662-84.831-.269-153.341-32.627-152.255-73.662 1.203-40.925 69.713-79.927 152.255-80.088 82.542.16 151.052 39.164 152.255 80.088z" fill="url(#SVGID_7_)"></path><path d="m256 201.162c48.482-.002 91.698-10.882 119.564-27.597-12.605-27.231-61.529-49.262-119.564-49.278-58.034.017-106.958 22.047-119.564 49.278 27.866 16.716 71.082 27.596 119.564 27.597z" fill="url(#SVGID_8_)"></path><path d="m408.255 127.5c1.086 41.036-67.424 73.393-152.255 73.662-84.831-.269-153.341-32.627-152.255-73.662 1.203-40.925 69.713-79.927 152.255-80.088 82.542.16 151.052 39.164 152.255 80.088z" fill="url(#SVGID_9_)"></path></g></svg>